<svg width="15" height="15" viewBox="0 0 15 15" fill="none" xmlns="http://www.w3.org/2000/svg">
<path d="M7.43184 3.61956C5.3211 3.61956 3.61763 5.32306 3.61763 7.43384C3.61763 9.54461 5.3211 11.2481 7.43184 11.2481C9.54258 11.2481 11.246 9.54461 11.246 7.43384C11.246 5.32306 9.54258 3.61956 7.43184 3.61956ZM7.43184 9.91284C6.06683 9.91284 4.95288 8.79887 4.95288 7.43384C4.95288 6.06881 6.06683 4.95484 7.43184 4.95484C8.79684 4.95484 9.91079 6.06881 9.91079 7.43384C9.91079 8.79887 8.79684 9.91284 7.43184 9.91284ZM11.4023 2.5744C10.9094 2.5744 10.5115 2.97238 10.5115 3.4652C10.5115 3.95803 10.9094 4.35601 11.4023 4.35601C11.8951 4.35601 12.293 3.95989 12.293 3.4652C12.2932 3.34818 12.2703 3.23228 12.2255 3.12413C12.1808 3.01599 12.1152 2.91773 12.0325 2.83498C11.9497 2.75223 11.8515 2.68662 11.7433 2.64191C11.6352 2.59719 11.5193 2.57425 11.4023 2.5744ZM14.8668 7.43384C14.8668 6.40727 14.8761 5.39001 14.8185 4.36531C14.7608 3.17509 14.4893 2.11877 13.619 1.24842C12.7468 0.376216 11.6924 0.106557 10.5022 0.0489057C9.47563 -0.00874544 8.45838 0.000553162 7.4337 0.000553162C6.40715 0.000553162 5.38991 -0.00874544 4.36522 0.0489057C3.17503 0.106557 2.11873 0.378075 1.2484 1.24842C0.376209 2.12063 0.106555 3.17509 0.0489048 4.36531C-0.00874528 5.39187 0.000553151 6.40913 0.000553151 7.43384C0.000553151 8.45854 -0.00874528 9.47766 0.0489048 10.5024C0.106555 11.6926 0.378068 12.7489 1.2484 13.6193C2.12059 14.4915 3.17503 14.7611 4.36522 14.8188C5.39177 14.8764 6.40901 14.8671 7.4337 14.8671C8.46024 14.8671 9.47749 14.8764 10.5022 14.8188C11.6924 14.7611 12.7487 14.4896 13.619 13.6193C14.4912 12.747 14.7608 11.6926 14.8185 10.5024C14.878 9.47766 14.8668 8.4604 14.8668 7.43384ZM13.2303 11.819C13.0946 12.1575 12.9309 12.4104 12.6687 12.6708C12.4065 12.933 12.1554 13.0967 11.817 13.2324C10.8388 13.6211 8.51603 13.5337 7.43184 13.5337C6.34764 13.5337 4.02304 13.6211 3.04485 13.2343C2.70639 13.0985 2.45347 12.9349 2.19312 12.6727C1.9309 12.4104 1.76725 12.1594 1.63149 11.8209C1.24468 10.8408 1.33208 8.51805 1.33208 7.43384C1.33208 6.34962 1.24468 4.02498 1.63149 3.04677C1.76725 2.7083 1.9309 2.45538 2.19312 2.19502C2.45533 1.93466 2.70639 1.76914 3.04485 1.63338C4.02304 1.24656 6.34764 1.33397 7.43184 1.33397C8.51603 1.33397 10.8406 1.24656 11.8188 1.63338C12.1573 1.76914 12.4102 1.9328 12.6706 2.19502C12.9328 2.45724 13.0964 2.7083 13.2322 3.04677C13.619 4.02498 13.5316 6.34962 13.5316 7.43384C13.5316 8.51805 13.619 10.8408 13.2303 11.819Z" fill="#42716B"/>
</svg>
