<svg width="15" height="16" viewBox="0 0 15 16" fill="none" xmlns="http://www.w3.org/2000/svg">
<path d="M13.199 3.7471C12.4026 3.57196 11.6821 3.14903 11.141 2.53899C10.5999 1.92896 10.2659 1.16318 10.187 0.351541V0H7.43059V10.9217C7.43115 11.4063 7.27921 11.8788 6.99631 12.2723C6.7134 12.6658 6.31387 12.9603 5.8543 13.114C5.39473 13.2678 4.89842 13.2731 4.43568 13.1291C3.97295 12.9852 3.56723 12.6993 3.27602 12.3119C3.01512 11.969 2.85536 11.56 2.8148 11.131C2.77425 10.7021 2.85452 10.2704 3.04654 9.88468C3.23856 9.49898 3.53466 9.1747 3.90137 8.94851C4.26808 8.72232 4.69075 8.60325 5.1216 8.60475C5.35989 8.60339 5.59698 8.63841 5.82469 8.70862V5.91227C5.5597 5.87946 5.29267 5.8661 5.02573 5.87232C4.04246 5.8986 3.0882 6.21103 2.27979 6.77136C1.47138 7.3317 0.843909 8.11561 0.474221 9.02711C0.104534 9.93861 0.00867167 10.9381 0.198374 11.9033C0.388077 12.8684 0.855111 13.7573 1.54228 14.4611C2.24655 15.1771 3.14778 15.6676 4.13145 15.8703C5.11513 16.073 6.13685 15.9786 7.06679 15.5993C7.99673 15.2199 8.79291 14.5727 9.35417 13.7398C9.91544 12.907 10.2164 11.9261 10.2189 10.9217V5.32903C11.3307 6.12315 12.6638 6.54796 14.03 6.54345V3.827C13.7616 3.8281 13.4938 3.80133 13.231 3.7471H13.199Z" fill="#42716B"/>
</svg>
