<svg width="19" height="16" viewBox="0 0 19 16" fill="none" xmlns="http://www.w3.org/2000/svg">
<path d="M18.1013 2.66107C17.4672 2.94207 16.7859 3.13194 16.0697 3.21777C16.8087 2.77559 17.3616 2.07966 17.6251 1.25982C16.9309 1.67221 16.171 1.96249 15.3786 2.11804C14.8457 1.54908 14.1399 1.17197 13.3708 1.04525C12.6016 0.91853 11.8121 1.04929 11.1249 1.41723C10.4377 1.78517 9.89118 2.3697 9.57021 3.08007C9.24923 3.79045 9.17177 4.58692 9.34984 5.34583C7.94304 5.2752 6.56682 4.90955 5.31048 4.27261C4.05415 3.63568 2.94578 2.74169 2.05731 1.64868C1.75351 2.17272 1.57883 2.7803 1.57883 3.42738C1.57849 4.0099 1.72194 4.5835 1.99646 5.09728C2.27097 5.61106 2.66805 6.04914 3.15248 6.37265C2.59067 6.35477 2.04126 6.20297 1.54997 5.92987V5.97544C1.54992 6.79244 1.83252 7.58431 2.34985 8.21666C2.86717 8.84902 3.58733 9.28292 4.38815 9.44475C3.86698 9.58579 3.32058 9.60657 2.79021 9.50551C3.01615 10.2085 3.45627 10.8232 4.04894 11.2636C4.64162 11.7041 5.35719 11.9481 6.09546 11.9617C4.8422 12.9455 3.29441 13.4792 1.70111 13.4768C1.41887 13.4769 1.13687 13.4604 0.856567 13.4275C2.47386 14.4673 4.35651 15.0192 6.27926 15.0171C12.788 15.0171 16.3462 9.62626 16.3462 4.9509C16.3462 4.799 16.3424 4.64559 16.3355 4.49369C17.0277 3.99318 17.6251 3.37338 18.0998 2.66334L18.1013 2.66107Z" fill="#42716B"/>
</svg>
