<svg width="16" height="13" viewBox="0 0 16 13" fill="none" xmlns="http://www.w3.org/2000/svg">
<path d="M8.06748 0.995972H8.15631C8.9767 0.998966 13.1336 1.02891 14.2544 1.33032C14.5932 1.42231 14.9019 1.60161 15.1498 1.85031C15.3976 2.099 15.5758 2.40839 15.6666 2.74754C15.7674 3.1268 15.8383 3.62881 15.8862 4.1468L15.8961 4.2506L15.9181 4.51009L15.9261 4.61388C15.991 5.5261 15.9989 6.38042 15.9999 6.56706V6.64191C15.9989 6.83553 15.99 7.74775 15.9181 8.69788L15.9101 8.80268L15.9011 8.90648C15.8512 9.47736 15.7774 10.0442 15.6666 10.4614C15.5761 10.8007 15.398 11.1102 15.1501 11.359C14.9022 11.6077 14.5933 11.7869 14.2544 11.8787C13.0966 12.19 8.69625 12.212 8.08645 12.213H7.94473C7.63633 12.213 6.36083 12.207 5.02345 12.1611L4.85378 12.1551L4.76695 12.1511L4.59629 12.1441L4.42562 12.1371C3.31779 12.0882 2.26286 12.0094 1.77681 11.8777C1.43796 11.786 1.12914 11.607 0.881288 11.3584C0.633432 11.1099 0.455245 10.8005 0.364575 10.4614C0.253793 10.0452 0.179937 9.47736 0.130035 8.90648L0.122051 8.80168L0.114066 8.69788C0.0648103 8.02161 0.0375161 7.34391 0.0322266 6.66586L0.0322266 6.54311C0.0342227 6.32853 0.042207 5.58698 0.0961014 4.76858L0.103088 4.66578L0.106082 4.61388L0.114066 4.51009L0.136023 4.2506L0.146004 4.1468C0.19391 3.62881 0.264771 3.1258 0.365574 2.74754C0.45609 2.40825 0.63421 2.09872 0.882075 1.84998C1.12994 1.60124 1.43884 1.42203 1.77781 1.33032C2.26385 1.20057 3.31879 1.12073 4.42662 1.07082L4.59629 1.06384L4.76795 1.05785L4.85378 1.05486L5.02445 1.04787C5.97429 1.0173 6.92453 1.00034 7.87486 0.99697H8.06748V0.995972ZM6.41971 4.1997V9.00828L10.5686 6.60498L6.41971 4.1997Z" fill="#42716B"/>
</svg>
