<svg width="154" height="29" fill="none" xmlns="http://www.w3.org/2000/svg"><path d="M10.105 1.884H3.896v20.805h6.465c6.994 0 11.694-4.282 11.694-10.655 0-6.355-4.466-10.15-11.95-10.15zM6.937 4.658h3.14c5.727 0 8.88 2.62 8.88 7.376 0 4.771-3.385 7.854-8.625 7.854H6.937V4.658zM39.656 20.45c-.969 0-1.57-.361-1.57-2.153v-6.488c0-3.47-2.3-5.459-6.308-5.459-3.593 0-6.228 1.692-7.62 4.894l-.066.15.155.052 2.457.843.136.046.054-.133c.934-2.324 2.406-3.36 4.772-3.36 2.251 0 3.491.854 3.491 2.405 0 1.295-1.24 1.701-4.286 2.38-2.529.514-3.919.954-4.957 1.561-1.477.882-2.163 2.075-2.163 3.754 0 2.522 1.915 4.027 5.121 4.027 2.796 0 5.218-1.54 6.371-3.983v.012c0 2.744 1.06 3.914 3.54 3.914.99 0 1.725-.31 2.075-.495l.081-.043v-2.176l-.196.06c-.385.119-.7.191-1.087.191zm-9.825.14c-1.913 0-3.01-.754-3.01-2.068 0-1.766 1.418-2.393 4.399-3.055 2.106-.458 3.397-.844 4.078-1.519v.867c0 2.789-2.196 5.775-5.467 5.775zM50.336 6.434c-2.2 0-3.682 1.106-4.507 3.373V6.66h-3.012v16.03h3.04v-7.904c0-3.529 1.412-5.636 3.774-5.636 1.101 0 1.971.242 2.738.761l.162.109.066-.184.876-2.444.041-.115-.104-.064c-.85-.517-1.882-.78-3.074-.78zM55.034.03h-.15v22.66h3.04V.031h-2.89zm27.054 7.25l-.104-.064c-.846-.519-1.88-.782-3.072-.782-2.2 0-3.683 1.106-4.507 3.373V6.66h-3.013v16.03h3.041v-7.904c0-3.529 1.411-5.636 3.774-5.636 1.1 0 1.97.242 2.738.761l.161.109.067-.184.875-2.444.04-.114zm-3.176-.695c-2.372 0-3.925 1.32-4.66 4.24.735-2.92 2.288-4.24 4.66-4.24zm-7.37 15.954V6.81v15.73zm6.663-13.538c1.13 0 2.034.253 2.825.787C80.239 9.254 79.335 9 78.204 9zM90.172 6.35c-4.793 0-8.142 3.423-8.142 8.324 0 5.04 3.184 8.295 8.113 8.295 4.854 0 8.114-3.334 8.114-8.295.001-4.978-3.249-8.324-8.085-8.324zm-5.043 8.324c0-3.545 1.933-5.748 5.043-5.748 3.187 0 5.016 2.095 5.016 5.748 0 3.563-1.886 5.69-5.043 5.69-3.188 0-5.016-2.072-5.016-5.69zm10.21 0c0-3.483-1.723-5.898-5.167-5.898 3.444 0 5.167 2.415 5.167 5.898 0 3.399-1.694 5.841-5.196 5.841 3.502.001 5.196-2.442 5.196-5.841zm-13.157 0c0-4.55 2.993-8.174 7.99-8.174-4.998 0-7.99 3.625-7.99 8.174 0 4.635 2.796 8.145 7.963 8.145-5.167 0-7.963-3.51-7.963-8.145zm25.873-8.324c-4.794 0-8.142 3.423-8.142 8.324 0 5.04 3.184 8.295 8.113 8.295 4.854 0 8.114-3.334 8.114-8.295 0-4.978-3.249-8.324-8.085-8.324zm-5.044 8.324c0-3.545 1.933-5.748 5.044-5.748 3.187 0 5.016 2.095 5.016 5.748 0 3.563-1.886 5.69-5.043 5.69-3.189 0-5.017-2.072-5.017-5.69zm10.211 0c0-3.483-1.723-5.898-5.167-5.898 3.444 0 5.167 2.415 5.167 5.898 0 3.399-1.695 5.841-5.196 5.841 3.501.001 5.196-2.442 5.196-5.841zm-13.158 0c0-4.55 2.993-8.174 7.99-8.174-4.997 0-7.99 3.625-7.99 8.174 0 4.635 2.795 8.145 7.962 8.145-5.166 0-7.962-3.51-7.962-8.145zm37.704-8.324c-2.63 0-4.658 1.392-5.756 3.933-.731-2.576-2.521-3.933-5.2-3.933-2.479 0-4.346 1.282-5.438 3.718V6.66h-3.013v16.03h3.041v-7.706c0-3.736 1.662-6.057 4.338-6.057 2.492 0 3.604 1.435 3.604 4.652v9.11h3.04V14.9c0-3.74 1.622-5.972 4.338-5.972 2.458 0 3.603 1.514 3.603 4.765v8.997h3.041v-9.615c.003-4.21-2.091-6.724-5.598-6.724zm0 .15c-2.655 0-4.744 1.46-5.789 4.27 1.046-2.808 3.135-4.27 5.789-4.27zm-10.955 0c-2.626 0-4.574 1.49-5.59 4.354 1.016-2.865 2.964-4.354 5.59-4.354zm-8.301 16.04V6.81v15.73zm10.983 0v-8.961c0-2.893-.875-4.803-3.755-4.803 2.88 0 3.755 1.91 3.755 4.803v8.96zm10.983 0v-8.848c0-2.894-.875-4.915-3.755-4.915 2.88 0 3.755 2.023 3.755 4.915v8.847zM69.713 6.658h-3.665l-.046.051-7.108 7.864-.091.1.09.102 7.109 7.864.046.05h3.665l-.228-.251-7.016-7.764 7.016-7.764.228-.252zM147.262.181a2.834 2.834 0 00-2.842 2.827 2.834 2.834 0 002.842 2.828 2.835 2.835 0 002.842-2.828 2.835 2.835 0 00-2.842-2.827zm0 5.278a2.459 2.459 0 01-2.463-2.45 2.459 2.459 0 012.463-2.45 2.46 2.46 0 012.463 2.45 2.46 2.46 0 01-2.463 2.45z" fill="#000"/><path d="M148.627 2.57c0-.5-.415-.768-.981-.768h-1.65v2.413h.415v-.876h1.023l.753.876h.513l-.787-.897c.424-.075.714-.33.714-.748zm-2.217.414v-.82h1.209c.346 0 .582.11.582.41s-.236.411-.582.411h-1.209v-.001z" fill="#000"/></svg>