<svg width="734" height="748" viewBox="0 0 734 748" fill="none" xmlns="http://www.w3.org/2000/svg">
<path d="M6.84176 416.699C8.70989 414.532 13.1294 412.507 18.0738 411.042C22.359 409.773 27.1201 408.901 31.3197 408.554L101.357 404.127L40.8856 440.857C35.1108 444.36 30.8561 446.337 27.2302 447.411C22.2858 448.875 18.9287 448.435 15.9196 447.354L24.0702 474.878C28.0385 470.118 32.6292 466.248 37.7632 462.398L117.84 463.423L57.2356 496.07C52.584 498.523 47.5052 500.744 42.8905 502.11C38.6053 503.379 34.833 503.959 32.416 503.061L40.713 531.079C46.2078 522.999 53.0939 517.195 62.6962 511.483L138.129 466.558L135.542 457.823L46.3951 456.435L120.364 406.566L117.631 397.336L30.1427 401.553C16.6896 402.13 8.77934 399.633 0.741028 396.097L6.84176 416.699Z" fill="#222222"/>
<path d="M65.9973 316.452C49.5141 315.682 34.2071 322.882 33.2765 342.799C32.1775 366.322 54.0011 378.01 77.3524 379.101C103.794 380.337 121.973 366.904 122.936 346.3C123.65 331.019 114.804 321.485 103.036 319.215C107.899 325.637 109.906 330.549 109.537 338.447C108.663 357.162 95.5958 364.295 75.9739 364.411L78.188 317.021L65.9973 316.452ZM73.0724 338.12L71.845 364.39L71.3299 364.366C50.0391 363.371 37.6381 356.253 38.1676 344.92C38.5847 335.992 47.1152 330.196 64.972 331.03C72.1834 331.367 73.3372 332.454 73.0724 338.12Z" fill="#222222"/>
<path d="M125.298 315.335L130.509 293.605C119.972 294.791 112.163 293.449 103.137 291.284L11.3719 269.281C13.1049 276.06 13.9552 282.096 13.9766 288.642C22.5473 286.808 34.3279 289.279 45.3597 291.925L99.8505 304.991C108.877 307.155 116.445 309.5 125.298 315.335Z" fill="#222222"/>
<path d="M140.731 222.542C143.008 228.438 143.468 233.342 140.058 241.043C134.42 253.774 118.67 260.898 91.9519 249.066C70.2629 239.462 68.7134 229.376 72.1237 221.675C75.3252 214.446 83.7492 210.281 96.8545 209.128L79.2808 197.023C75.5157 200.431 72.6576 203.489 69.3169 211.033C58.5292 235.394 73.6019 256.544 95.4482 266.218C118.552 276.449 141.179 269.926 148.695 252.952C154.054 240.85 150.758 229.615 140.731 222.542Z" fill="#222222"/>
<path d="M180.154 203.696C192.573 187.66 186.722 165.737 165.657 149.425C146.358 134.481 123.24 130.927 109.98 148.051C97.6666 163.952 103.14 185.8 124.341 202.217C143.504 217.056 166.789 220.956 180.154 203.696ZM176.994 199.075C168.785 209.675 149.109 201.396 131.169 187.504C112.551 173.086 106.721 160.963 113.035 152.808C121.349 142.072 141.056 150.593 158.859 164.379C178.158 179.323 182.992 191.328 176.994 199.075Z" fill="#222222"/>
<path d="M271.335 93.4346L251.1 63.5431C241.464 49.3091 231.062 48.048 221.667 54.4075C214.266 59.4181 208.892 68.0375 209.805 82.5717C201.449 73.9065 192.915 73.8717 184.944 79.2676C177.827 84.0855 172.403 92.3239 172.931 106.289C170.136 102.161 164.9 96.5724 161.692 94.5928C159.248 99.5682 156.423 104.594 153.36 109.574C161.066 113.905 167.618 123.584 173.978 132.979L186.215 151.056C191.418 158.742 195.566 165.483 198.166 175.762L216.528 163.332C207.807 157.196 203.09 150.841 197.887 143.155L175.629 110.274C176.697 99.5876 180.858 94.6954 184.843 91.9974C192.103 87.0832 198.464 90.0416 204.535 99.009L238.163 148.686L253.536 138.279C244.958 132.047 239.814 125.981 234.611 118.295L214.376 88.4033C213.701 87.4069 213.123 86.5528 212.306 85.6528C213.278 74.8239 217.581 69.8353 221.567 67.1373C228.826 62.2231 235.188 65.1815 241.258 74.1489L259.952 101.763C264.962 109.165 270.785 116.847 276.737 122.573L290.26 113.419C281.682 107.187 276.538 101.121 271.335 93.4346Z" fill="#222222"/>
<path d="M332.458 45.4333C327.812 29.5997 316.015 17.4766 296.882 23.0906C274.286 29.7208 270.352 54.1627 276.934 76.5938C284.387 101.994 303.013 114.8 322.805 108.992C337.484 104.685 343.612 93.2139 341.922 81.3495C337.436 88.0397 333.447 91.539 325.86 93.7652C307.882 99.0403 296.879 89.013 290.372 70.5009L335.894 57.1437L332.458 45.4333ZM314.281 59.1863L289.046 66.5909L288.901 66.0961C282.9 45.6443 285.586 31.6001 296.472 28.406C305.048 25.8894 313.309 32.064 318.342 49.2171C320.375 56.1444 319.724 57.5893 314.281 59.1863Z" fill="#222222"/>
<path d="M431.738 98.7456C423.051 97.5692 424.274 88.5415 424.689 85.4755L432.462 28.0733L451.54 30.6568L453.06 25.8325L433.131 23.1337L436.222 0.309082C430.72 2.51273 425.628 4.25153 420.264 5.43319C420.023 12.3388 419.948 15.4509 419.164 21.2422L410.647 20.0889L409.297 24.9363L418.495 26.1819L410.468 85.4577C408.553 99.5953 411.635 108.859 422.537 110.335C434.119 111.904 442.906 103.38 443.967 95.5448C438.395 98.2594 435.145 99.2069 431.738 98.7456Z" fill="#222222"/>
<path d="M476.928 124.922C495.994 131.842 515.077 119.569 524.167 94.5245C532.495 71.581 528.81 48.4832 508.451 41.094C489.547 34.2326 470.419 46.1245 461.271 71.3301C453.002 94.112 456.408 117.474 476.928 124.922ZM480.362 120.5C467.759 115.926 469.626 94.6601 477.367 73.3323C485.401 51.1967 495.161 41.939 504.856 45.4577C517.62 50.0906 515.533 71.459 507.851 92.6252C499.523 115.569 489.571 123.843 480.362 120.5Z" fill="#222222"/>
<path d="M652.477 146.29C651.435 148.692 648.531 152.377 644.655 156.034C641.405 159.101 637.55 162.029 633.606 163.859L591.33 183.423L614.025 143.105C616.589 138.559 620.117 134.285 623.743 130.864C626.994 127.797 630.098 125.577 632.188 124.786L613.669 105.158C612.442 113.877 608.954 120.949 602.783 132.443L574.654 184.033L579.373 189.034L571.852 192.584C563.221 196.711 555.674 196.978 550.484 191.477C548.007 188.851 546.176 184.907 544.873 179.519L531.578 193.481L536.061 198.232C545.026 207.733 552.586 206.98 572.794 197.84L637.109 168.825C649.06 163.457 656.691 160.275 665.453 160.043L652.477 146.29Z" fill="#222222"/>
<path d="M613.547 244.474C623.336 262.238 645.779 265.572 669.114 252.715C690.492 240.935 702.932 221.128 692.48 202.159C682.774 184.545 660.549 180.895 637.064 193.836C615.837 205.532 603.012 225.354 613.547 244.474ZM619.044 243.408C612.573 231.665 627.985 216.893 647.857 205.944C668.482 194.579 681.923 194.042 686.9 203.075C693.454 214.968 677.809 229.672 658.087 240.539C636.71 252.318 623.772 251.989 619.044 243.408Z" fill="#222222"/>
<path d="M646.619 336.622C655.376 329.942 661.118 328.115 673.44 324.957L729.719 310.533C725.77 305.512 721.903 300.115 718.411 294.8C711.691 300.426 700.078 303.58 689.422 306.311L658.285 314.291C650.631 310.042 647.933 305.055 646.781 300.56C643.452 287.572 655.108 284.585 659.77 283.39L719.213 268.155C715.307 263.301 711.397 257.737 707.905 252.422C701.185 258.048 689.572 261.202 678.583 264.018L653.107 270.547C636.456 274.815 631.631 283.682 634.746 295.836C636.88 304.162 642.511 311.591 653.375 315.904C649.298 317.304 644.892 319.498 642.778 321.637L646.619 336.622Z" fill="#222222"/>
<path d="M733.011 378.315C732.68 368.523 730.061 362.248 715.674 358.95L716.362 358.927C721.343 358.759 729.004 356.436 732.388 354.774C729.826 350.217 727.058 344.635 724.817 339.379C717.048 343.597 704.719 345.217 693.381 345.6L671.564 346.337C662.287 346.651 654.373 346.574 644.282 343.131L645.042 365.636C654.872 361.348 662.763 360.737 672.04 360.424L692.655 359.728C708.116 359.205 721.562 360.127 721.869 369.232C721.985 372.668 720.276 378.057 714.586 382.721L732.402 385.731C732.853 383.824 733.092 380.72 733.011 378.315Z" fill="#222222"/>
<path d="M675.839 561.906C673.223 561.796 669.515 560.782 665.175 558.703C661.455 556.921 657.182 554.302 652.66 550.611L615.626 520.099L664.023 526.893C668.108 527.516 671.66 528.456 674.916 530.015C679.256 532.095 683.077 535.259 686.458 539.738L698.415 514.78C691.727 514.817 682.807 514.736 673.794 513.659L638.61 478.887L682.737 487.829C687.982 488.817 694.015 490.945 698.665 493.173C702.23 494.881 705.027 496.602 706.361 498.194L717.278 475.406C707.461 476.802 698.67 475.259 688.572 473.661L627.813 463.232L624.025 471.138L664.241 512.513L607.465 505.707L602.86 515.318L649.212 555.82C659.589 564.794 664.297 570.481 668.19 577.872L675.839 561.906Z" fill="#222222"/>
<path d="M569.321 549.537C555.506 564.387 559.354 586.748 578.86 604.895C596.73 621.521 619.434 627.147 634.186 611.29C647.884 596.566 644.405 574.313 624.773 556.049C607.028 539.54 584.19 533.554 569.321 549.537ZM572.052 554.425C581.184 544.608 600.032 554.631 616.644 570.085C633.885 586.125 638.597 598.725 631.572 606.276C622.323 616.218 603.466 605.953 586.98 590.616C569.109 573.99 565.378 561.598 572.052 554.425Z" fill="#222222"/>
<path d="M561.941 669.061C570.023 663.523 573.908 657.943 568.963 644.037L569.352 644.604C572.169 648.716 578.243 653.93 581.463 655.891C583.931 651.283 587.152 645.949 590.382 641.236C582.651 636.948 574.662 627.42 568.249 618.062L555.909 600.055C550.662 592.398 546.476 585.682 543.959 575.32L525.385 588.049C534.282 594.038 539.035 600.366 544.282 608.022L555.942 625.037C564.688 637.798 571.132 649.635 563.617 654.785C560.782 656.728 555.317 658.18 548.327 655.886L555.358 672.531C557.209 671.887 559.956 670.422 561.941 669.061Z" fill="#222222"/>
<path d="M502.573 601.342L482.362 610.872C489.879 618.35 493.717 625.281 497.676 633.677L537.923 719.03C542.127 713.437 546.305 708.997 551.397 704.885C544.604 699.346 539.162 688.61 534.323 678.349L510.425 627.665C506.466 619.27 503.56 611.898 502.573 601.342Z" fill="#222222"/>
<path d="M408.488 631.811C414.031 640.525 416.949 647.946 419.157 656.784L441.824 747.502C446.952 743.209 452.247 739.583 457.625 736.29C452.29 729.827 449.206 718.904 446.54 708.232C450.5 709.9 454.961 710.025 459.963 708.775C479.975 703.775 489.816 681.473 482.858 653.624C476.566 628.443 461.059 617.435 445.05 621.435C437.379 623.352 431.501 628.187 428.54 636.9C427.248 633.856 424.872 630.021 423.33 628.103L408.488 631.811ZM439.171 634.775C451.344 631.733 463.391 639.531 469.474 663.878C475.224 686.891 470.887 700.731 459.38 703.606C453.21 705.148 445.331 703.396 441.831 689.388L429.79 641.194C432.291 637.734 435.168 635.775 439.171 634.775Z" fill="#222222"/>
<path d="M394.693 627.889C388.858 628.217 384.818 632.921 385.127 638.412C385.446 644.076 389.987 648.296 395.822 647.968C401.657 647.64 405.525 642.946 405.206 637.283C404.898 631.791 400.528 627.561 394.693 627.889Z" fill="#222222"/>
</svg>
